<mxfile host="app.diagrams.net" modified="2020-11-11T12:58:52.750Z" agent="5.0 (Windows NT 10.0; Win64; x64) AppleWebKit/537.36 (KHTML, like Gecko) Chrome/86.0.4240.193 Safari/537.36" etag="kVB_H4WnRwuR__5A206m" version="13.9.6" type="github">
  <diagram name="Page-1" id="c37626ed-c26b-45fb-9056-f9ebc6bb27b6">
    <mxGraphModel dx="1102" dy="614" grid="1" gridSize="10" guides="1" tooltips="1" connect="1" arrows="1" fold="1" page="1" pageScale="1" pageWidth="1100" pageHeight="850" background="#ffffff" math="0" shadow="0">
      <root>
        <mxCell id="0" />
        <mxCell id="1" parent="0" />
        <mxCell id="Wvy0hPLLNvHIaupU9EZO-2" value="" style="shape=mxgraph.cisco.routers.wireless_router;html=1;pointerEvents=1;dashed=0;fillColor=#036897;strokeColor=#ffffff;strokeWidth=2;verticalLabelPosition=bottom;verticalAlign=top;align=center;outlineConnect=0;" vertex="1" parent="1">
          <mxGeometry x="380" y="160" width="78" height="77" as="geometry" />
        </mxCell>
        <mxCell id="Wvy0hPLLNvHIaupU9EZO-3" value="" style="shape=mxgraph.cisco.routers.wireless_router;html=1;pointerEvents=1;dashed=0;fillColor=#036897;strokeColor=#ffffff;strokeWidth=2;verticalLabelPosition=bottom;verticalAlign=top;align=center;outlineConnect=0;" vertex="1" parent="1">
          <mxGeometry x="380" y="280" width="78" height="77" as="geometry" />
        </mxCell>
        <mxCell id="Wvy0hPLLNvHIaupU9EZO-4" value="" style="shape=mxgraph.cisco.routers.wireless_router;html=1;pointerEvents=1;dashed=0;fillColor=#036897;strokeColor=#ffffff;strokeWidth=2;verticalLabelPosition=bottom;verticalAlign=top;align=center;outlineConnect=0;" vertex="1" parent="1">
          <mxGeometry x="380" y="387" width="78" height="77" as="geometry" />
        </mxCell>
        <mxCell id="Wvy0hPLLNvHIaupU9EZO-5" value="" style="shape=mxgraph.cisco.computers_and_peripherals.terminal;html=1;pointerEvents=1;dashed=0;fillColor=#036897;strokeColor=#ffffff;strokeWidth=2;verticalLabelPosition=bottom;verticalAlign=top;align=center;outlineConnect=0;" vertex="1" parent="1">
          <mxGeometry x="89.5" y="280" width="61" height="54" as="geometry" />
        </mxCell>
        <mxCell id="Wvy0hPLLNvHIaupU9EZO-6" value="" style="endArrow=none;html=1;entryX=0.12;entryY=0.93;entryDx=0;entryDy=0;entryPerimeter=0;exitX=0.5;exitY=0.98;exitDx=0;exitDy=0;exitPerimeter=0;" edge="1" parent="1" source="Wvy0hPLLNvHIaupU9EZO-21" target="Wvy0hPLLNvHIaupU9EZO-4">
          <mxGeometry width="50" height="50" relative="1" as="geometry">
            <mxPoint x="188.4942247702554" y="350" as="sourcePoint" />
            <mxPoint x="400" y="390" as="targetPoint" />
          </mxGeometry>
        </mxCell>
        <mxCell id="Wvy0hPLLNvHIaupU9EZO-8" value="" style="endArrow=none;html=1;entryX=0.5;entryY=1;entryDx=0;entryDy=0;entryPerimeter=0;exitX=1;exitY=0;exitDx=0;exitDy=0;exitPerimeter=0;" edge="1" parent="1" source="Wvy0hPLLNvHIaupU9EZO-21" target="Wvy0hPLLNvHIaupU9EZO-2">
          <mxGeometry width="50" height="50" relative="1" as="geometry">
            <mxPoint x="331" y="280.20577617328524" as="sourcePoint" />
            <mxPoint x="410" y="220" as="targetPoint" />
          </mxGeometry>
        </mxCell>
        <mxCell id="Wvy0hPLLNvHIaupU9EZO-9" value="" style="endArrow=none;html=1;exitX=0.87;exitY=0.74;exitDx=0;exitDy=0;exitPerimeter=0;entryX=0.12;entryY=0.93;entryDx=0;entryDy=0;entryPerimeter=0;" edge="1" parent="1" source="Wvy0hPLLNvHIaupU9EZO-21" target="Wvy0hPLLNvHIaupU9EZO-3">
          <mxGeometry width="50" height="50" relative="1" as="geometry">
            <mxPoint x="317.8699999999999" y="317" as="sourcePoint" />
            <mxPoint x="420" y="310" as="targetPoint" />
          </mxGeometry>
        </mxCell>
        <mxCell id="Wvy0hPLLNvHIaupU9EZO-11" value="Ð¢est-kiev-1" style="text;html=1;strokeColor=none;fillColor=none;align=center;verticalAlign=middle;whiteSpace=wrap;rounded=0;" vertex="1" parent="1">
          <mxGeometry x="100" y="337" width="40" height="20" as="geometry" />
        </mxCell>
        <mxCell id="Wvy0hPLLNvHIaupU9EZO-12" value="rax1" style="text;html=1;strokeColor=none;fillColor=none;align=center;verticalAlign=middle;whiteSpace=wrap;rounded=0;" vertex="1" parent="1">
          <mxGeometry x="440" y="237" width="40" height="20" as="geometry" />
        </mxCell>
        <mxCell id="Wvy0hPLLNvHIaupU9EZO-13" value="rax2" style="text;html=1;strokeColor=none;fillColor=none;align=center;verticalAlign=middle;whiteSpace=wrap;rounded=0;" vertex="1" parent="1">
          <mxGeometry x="440" y="350" width="40" height="20" as="geometry" />
        </mxCell>
        <mxCell id="Wvy0hPLLNvHIaupU9EZO-14" value="glinet1" style="text;html=1;strokeColor=none;fillColor=none;align=center;verticalAlign=middle;whiteSpace=wrap;rounded=0;" vertex="1" parent="1">
          <mxGeometry x="440" y="460" width="40" height="20" as="geometry" />
        </mxCell>
        <mxCell id="Wvy0hPLLNvHIaupU9EZO-15" value="br_rax1_lan" style="text;html=1;strokeColor=none;fillColor=none;align=center;verticalAlign=middle;whiteSpace=wrap;rounded=0;" vertex="1" parent="1">
          <mxGeometry x="240" y="250" width="70" height="30" as="geometry" />
        </mxCell>
        <mxCell id="Wvy0hPLLNvHIaupU9EZO-16" value="br_rax2_lan" style="text;html=1;strokeColor=none;fillColor=none;align=center;verticalAlign=middle;whiteSpace=wrap;rounded=0;" vertex="1" parent="1">
          <mxGeometry x="320" y="297" width="40" height="20" as="geometry" />
        </mxCell>
        <mxCell id="Wvy0hPLLNvHIaupU9EZO-20" value="br_glinet1" style="text;html=1;strokeColor=none;fillColor=none;align=center;verticalAlign=middle;whiteSpace=wrap;rounded=0;" vertex="1" parent="1">
          <mxGeometry x="220" y="330" width="40" height="20" as="geometry" />
        </mxCell>
        <mxCell id="Wvy0hPLLNvHIaupU9EZO-21" value="" style="shape=mxgraph.cisco.switches.workgroup_switch;html=1;pointerEvents=1;dashed=0;fillColor=#036897;strokeColor=#ffffff;strokeWidth=2;verticalLabelPosition=bottom;verticalAlign=top;align=center;outlineConnect=0;" vertex="1" parent="1">
          <mxGeometry x="201" y="280" width="101" height="50" as="geometry" />
        </mxCell>
        <mxCell id="Wvy0hPLLNvHIaupU9EZO-23" value="" style="endArrow=none;html=1;entryX=0;entryY=0.5;entryDx=0;entryDy=0;entryPerimeter=0;exitX=1;exitY=0.5;exitDx=0;exitDy=0;exitPerimeter=0;" edge="1" parent="1" source="Wvy0hPLLNvHIaupU9EZO-5" target="Wvy0hPLLNvHIaupU9EZO-21">
          <mxGeometry width="50" height="50" relative="1" as="geometry">
            <mxPoint x="130" y="440" as="sourcePoint" />
            <mxPoint x="180" y="390" as="targetPoint" />
          </mxGeometry>
        </mxCell>
        <mxCell id="Wvy0hPLLNvHIaupU9EZO-24" value="" style="endArrow=none;html=1;exitX=1;exitY=0;exitDx=0;exitDy=0;exitPerimeter=0;entryX=0.12;entryY=0.93;entryDx=0;entryDy=0;entryPerimeter=0;" edge="1" parent="1" source="Wvy0hPLLNvHIaupU9EZO-21" target="Wvy0hPLLNvHIaupU9EZO-2">
          <mxGeometry width="50" height="50" relative="1" as="geometry">
            <mxPoint x="350" y="340" as="sourcePoint" />
            <mxPoint x="400" y="290" as="targetPoint" />
          </mxGeometry>
        </mxCell>
        <mxCell id="Wvy0hPLLNvHIaupU9EZO-26" value="br_rax1_wan" style="text;html=1;strokeColor=none;fillColor=none;align=center;verticalAlign=middle;whiteSpace=wrap;rounded=0;" vertex="1" parent="1">
          <mxGeometry x="300" y="267" width="70" height="30" as="geometry" />
        </mxCell>
        <mxCell id="Wvy0hPLLNvHIaupU9EZO-27" value="br_rax2_wan" style="text;html=1;strokeColor=none;fillColor=none;align=center;verticalAlign=middle;whiteSpace=wrap;rounded=0;" vertex="1" parent="1">
          <mxGeometry x="310" y="334" width="40" height="20" as="geometry" />
        </mxCell>
        <mxCell id="Wvy0hPLLNvHIaupU9EZO-28" value="" style="endArrow=none;html=1;exitX=0.87;exitY=0.74;exitDx=0;exitDy=0;exitPerimeter=0;" edge="1" parent="1" source="Wvy0hPLLNvHIaupU9EZO-21" target="Wvy0hPLLNvHIaupU9EZO-3">
          <mxGeometry width="50" height="50" relative="1" as="geometry">
            <mxPoint x="312" y="290" as="sourcePoint" />
            <mxPoint x="429" y="247" as="targetPoint" />
          </mxGeometry>
        </mxCell>
      </root>
    </mxGraphModel>
  </diagram>
</mxfile>
